<svg width="24" height="25" viewBox="0 0 24 25" fill="none" xmlns="http://www.w3.org/2000/svg">
<g clip-path="url(#clip0_17211_1376)">
<path d="M12 24.0234C5.383 24.0234 0 18.6404 0 12.0234C0 5.40644 5.383 0.0234375 12 0.0234375C18.617 0.0234375 24 5.40644 24 12.0234C24 18.6404 18.617 24.0234 12 24.0234ZM12 2.02344C6.486 2.02344 2 6.50944 2 12.0234C2 17.5374 6.486 22.0234 12 22.0234C17.514 22.0234 22 17.5374 22 12.0234C22 6.50944 17.514 2.02344 12 2.02344ZM17 12.0234C17 11.4704 16.553 11.0234 16 11.0234H13V6.02344C13 5.47044 12.552 5.02344 12 5.02344C11.448 5.02344 11 5.47044 11 6.02344V12.0234C11 12.5764 11.448 13.0234 12 13.0234H16C16.553 13.0234 17 12.5764 17 12.0234Z" fill="#CDB494"/>
</g>
<defs>
<clipPath id="clip0_17211_1376">
<rect width="24" height="24" fill="white" transform="translate(0 0.0234375)"/>
</clipPath>
</defs>
</svg>
