<svg width="24" height="25" viewBox="0 0 24 25" fill="none" xmlns="http://www.w3.org/2000/svg">
<g clip-path="url(#clip0_17211_1374)">
<path d="M19 1.02344H5C3.67441 1.02503 2.40356 1.55232 1.46622 2.48966C0.528882 3.427 0.00158786 4.69784 0 6.02344L0 18.0234C0.00158786 19.349 0.528882 20.6199 1.46622 21.5572C2.40356 22.4946 3.67441 23.0219 5 23.0234H19C20.3256 23.0219 21.5964 22.4946 22.5338 21.5572C23.4711 20.6199 23.9984 19.349 24 18.0234V6.02344C23.9984 4.69784 23.4711 3.427 22.5338 2.48966C21.5964 1.55232 20.3256 1.02503 19 1.02344ZM5 3.02344H19C19.5988 3.02462 20.1835 3.20495 20.679 3.54124C21.1744 3.87753 21.5579 4.35438 21.78 4.91044L14.122 12.5694C13.5584 13.1308 12.7954 13.4459 12 13.4459C11.2046 13.4459 10.4416 13.1308 9.878 12.5694L2.22 4.91044C2.44215 4.35438 2.82561 3.87753 3.32105 3.54124C3.81648 3.20495 4.40121 3.02462 5 3.02344ZM19 21.0234H5C4.20435 21.0234 3.44129 20.7074 2.87868 20.1448C2.31607 19.5821 2 18.8191 2 18.0234V7.52344L8.464 13.9834C9.40263 14.9197 10.6743 15.4455 12 15.4455C13.3257 15.4455 14.5974 14.9197 15.536 13.9834L22 7.52344V18.0234C22 18.8191 21.6839 19.5821 21.1213 20.1448C20.5587 20.7074 19.7956 21.0234 19 21.0234Z" fill="#CDB494"/>
</g>
<defs>
<clipPath id="clip0_17211_1374">
<rect width="24" height="24" fill="white" transform="translate(0 0.0234375)"/>
</clipPath>
</defs>
</svg>
