<svg width="41" height="40" viewBox="0 0 41 40" fill="none" xmlns="http://www.w3.org/2000/svg">
<path d="M20.9531 40C31.9988 40 40.9531 31.0457 40.9531 20C40.9531 8.95431 31.9988 0 20.9531 0C9.90743 0 0.953125 8.95431 0.953125 20C0.953125 31.0457 9.90743 40 20.9531 40Z" fill="#4065D6"/>
<path d="M30.175 25.7149C29.7066 25.7807 27.4303 25.7149 27.3119 25.7149C26.7233 25.7209 26.1561 25.4949 25.7329 25.086C25.2513 24.6228 24.8171 24.1123 24.3566 23.6307C24.2168 23.4839 24.0664 23.3476 23.9066 23.2228C23.5303 22.936 23.1592 23.0018 22.9829 23.4439C22.8448 23.923 22.7497 24.4136 22.6987 24.9096C22.6905 25.1186 22.5997 25.3158 22.4462 25.4579C22.2928 25.6 22.0893 25.6754 21.8803 25.6675C21.5697 25.6833 21.2592 25.6912 20.9513 25.6833C19.8313 25.6775 18.7285 25.407 17.7329 24.8939C16.6581 24.2932 15.7213 23.4738 14.9829 22.4886C13.8015 20.9287 12.7806 19.2535 11.9355 17.4886C11.8908 17.3991 11.004 15.5123 10.9829 15.4254C10.9279 15.3018 10.9227 15.1617 10.9682 15.0343C11.0138 14.9069 11.1067 14.8019 11.2276 14.7412C11.3855 14.6807 14.3092 14.7412 14.3566 14.7412C14.5743 14.7392 14.787 14.8067 14.9636 14.9341C15.1401 15.0614 15.2714 15.2419 15.3382 15.4491C15.8789 16.8276 16.6173 18.1201 17.5303 19.286C17.6576 19.4431 17.8075 19.5805 17.975 19.6939C18.0182 19.7355 18.0717 19.7649 18.1301 19.779C18.1884 19.793 18.2494 19.7913 18.3069 19.7738C18.3643 19.7564 18.416 19.7239 18.4567 19.6798C18.4973 19.6357 18.5255 19.5815 18.5382 19.5228C18.6538 19.1423 18.7219 18.749 18.7408 18.3518C18.7566 17.5623 18.7408 17.036 18.6961 16.2465C18.712 15.9775 18.6211 15.713 18.4433 15.5105C18.2654 15.308 18.0149 15.1838 17.7461 15.1649C17.5145 15.1254 17.4829 14.936 17.6434 14.7465C17.9513 14.3544 18.3776 14.2912 18.8408 14.2675C19.5408 14.2281 20.2434 14.2675 20.9461 14.2675H21.0987C21.4072 14.2668 21.7149 14.2976 22.0171 14.3596C22.1938 14.3958 22.3541 14.4881 22.4741 14.6228C22.594 14.7575 22.6673 14.9273 22.6829 15.107C22.7184 15.3059 22.7342 15.5077 22.7303 15.7096C22.7119 16.5702 22.6697 17.4307 22.6592 18.2939C22.6529 18.6348 22.6838 18.9754 22.7513 19.3096C22.854 19.7675 23.1671 19.8833 23.4882 19.5491C23.8882 19.1197 24.2551 18.6605 24.5855 18.1754C25.1797 17.2923 25.669 16.3429 26.0434 15.3465C26.2461 14.836 26.4013 14.7228 26.9513 14.7228H30.054C30.2391 14.7197 30.4236 14.7446 30.6013 14.7965C30.6641 14.8132 30.7227 14.8427 30.7735 14.883C30.8244 14.9233 30.8665 14.9737 30.8971 15.0309C30.9277 15.0882 30.9462 15.1511 30.9514 15.2158C30.9567 15.2805 30.9486 15.3456 30.9276 15.407C30.7462 16.0672 30.4349 16.6845 30.0119 17.2228C29.3803 18.1149 28.7171 18.986 28.0698 19.8544C27.9878 19.968 27.9131 20.0867 27.8461 20.2096C27.604 20.6465 27.6224 20.8939 27.9724 21.2623C28.5355 21.8412 29.1382 22.386 29.6803 22.9807C30.0801 23.4141 30.4411 23.8816 30.7592 24.3781C31.1592 25.0202 30.9145 25.6096 30.175 25.7149Z" fill="white"/>
</svg>
