<svg width="25" height="25" viewBox="0 0 25 25" fill="none" xmlns="http://www.w3.org/2000/svg">
<g clip-path="url(#clip0_17211_1368)">
<path d="M13.9531 1.02308C13.9531 0.757865 14.0585 0.503511 14.246 0.315975C14.4335 0.128438 14.6879 0.0230813 14.9531 0.0230813C17.6044 0.0259929 20.1462 1.0805 22.021 2.95523C23.8957 4.82996 24.9502 7.37181 24.9531 10.0231C24.9531 10.2883 24.8478 10.5427 24.6602 10.7302C24.4727 10.9177 24.2183 11.0231 23.9531 11.0231C23.6879 11.0231 23.4335 10.9177 23.246 10.7302C23.0585 10.5427 22.9531 10.2883 22.9531 10.0231C22.9507 7.90208 22.1071 5.86863 20.6073 4.36886C19.1076 2.86908 17.0741 2.02546 14.9531 2.02308C14.6879 2.02308 14.4335 1.91772 14.246 1.73019C14.0585 1.54265 13.9531 1.2883 13.9531 1.02308ZM14.9531 6.02308C16.014 6.02308 17.0314 6.44451 17.7815 7.19465C18.5317 7.9448 18.9531 8.96222 18.9531 10.0231C18.9531 10.2883 19.0585 10.5427 19.246 10.7302C19.4335 10.9177 19.6879 11.0231 19.9531 11.0231C20.2183 11.0231 20.4727 10.9177 20.6602 10.7302C20.8478 10.5427 20.9531 10.2883 20.9531 10.0231C20.9515 8.43227 20.3189 6.90707 19.194 5.7822C18.0691 4.65732 16.5439 4.02467 14.9531 4.02308C14.6879 4.02308 14.4335 4.12844 14.246 4.31598C14.0585 4.50351 13.9531 4.75787 13.9531 5.02308C13.9531 5.2883 14.0585 5.54265 14.246 5.73019C14.4335 5.91773 14.6879 6.02308 14.9531 6.02308ZM24.0461 16.7621C24.6256 17.3432 24.9511 18.1304 24.9511 18.9511C24.9511 19.7718 24.6256 20.559 24.0461 21.1401L23.1361 22.1891C14.9461 30.0301 -4.98389 10.1051 2.73611 1.88908L3.88611 0.889081C4.46788 0.325759 5.24804 0.0141304 6.05781 0.0216162C6.86759 0.0291019 7.64186 0.3551 8.21311 0.929081C8.24411 0.960082 10.0971 3.36708 10.0971 3.36708C10.6469 3.94471 10.953 4.71201 10.9517 5.50948C10.9504 6.30696 10.6418 7.07326 10.0901 7.64908L8.93211 9.10508C9.57296 10.6622 10.5152 12.0773 11.7046 13.2692C12.8941 14.461 14.3073 15.4061 15.8631 16.0501L17.3281 14.8851C17.904 14.3338 18.6702 14.0256 19.4674 14.0245C20.2646 14.0233 21.0317 14.3294 21.6091 14.8791C21.6091 14.8791 24.0151 16.7311 24.0461 16.7621ZM22.6701 18.2161C22.6701 18.2161 20.2771 16.3751 20.2461 16.3441C20.0401 16.1398 19.7617 16.0252 19.4716 16.0252C19.1815 16.0252 18.9031 16.1398 18.6971 16.3441C18.6701 16.3721 16.6531 17.9791 16.6531 17.9791C16.5172 18.0873 16.3554 18.1582 16.1838 18.1848C16.0121 18.2115 15.8364 18.193 15.6741 18.1311C13.6586 17.3807 11.8278 16.2058 10.3059 14.6862C8.78404 13.1665 7.60651 11.3375 6.85311 9.32308C6.78631 9.15854 6.76453 8.97917 6.79001 8.80342C6.8155 8.62767 6.88732 8.46188 6.99811 8.32308C6.99811 8.32308 8.60511 6.30508 8.63211 6.27908C8.83638 6.07307 8.95099 5.7947 8.95099 5.50458C8.95099 5.21447 8.83638 4.9361 8.63211 4.73008C8.60111 4.70008 6.76011 2.30508 6.76011 2.30508C6.55101 2.11759 6.27811 2.01718 5.99736 2.02443C5.7166 2.03168 5.44925 2.14604 5.25011 2.34408L4.10011 3.34408C-1.54189 10.1281 15.7291 26.4411 21.6741 20.8231L22.5851 19.7731C22.7986 19.5753 22.9268 19.3023 22.9427 19.0118C22.9585 18.7212 22.8608 18.4359 22.6701 18.2161Z" fill="#CDB494"/>
</g>
<defs>
<clipPath id="clip0_17211_1368">
<rect width="24" height="24" fill="white" transform="translate(0.953125 0.0234375)"/>
</clipPath>
</defs>
</svg>
