<svg width="15" height="14" viewBox="0 0 15 14" fill="none" xmlns="http://www.w3.org/2000/svg">
<path d="M14.2433 12.5097L11.5337 9.7989C13.5612 7.08945 13.0083 3.24936 10.2989 1.22186C7.58945 -0.805644 3.74936 -0.25281 1.72186 2.45664C-0.305644 5.16609 0.24719 9.00618 2.95664 11.0337C5.1331 12.6623 8.12241 12.6623 10.2989 11.0337L13.0097 13.7445C13.3504 14.0852 13.9027 14.0852 14.2433 13.7445C14.584 13.4038 14.584 12.8515 14.2433 12.5109L14.2433 12.5097ZM6.65036 10.5105C4.24233 10.5105 2.29025 8.55839 2.29025 6.15036C2.29025 3.74233 4.24233 1.79025 6.65036 1.79025C9.05839 1.79025 11.0105 3.74233 11.0105 6.15036C11.0079 8.5573 9.05733 10.5079 6.65036 10.5105Z" fill="#CDB494"/>
</svg>
